<?xml version="1.0" encoding="utf-8"?>
<!-- Generator: Adobe Illustrator 17.0.0, SVG Export Plug-In . SVG Version: 6.00 Build 0)  -->
<!DOCTYPE svg PUBLIC "-//W3C//DTD SVG 1.1//EN" "http://www.w3.org/Graphics/SVG/1.1/DTD/svg11.dtd">
<svg version="1.1" id="Layer_1" xmlns="http://www.w3.org/2000/svg" xmlns:xlink="http://www.w3.org/1999/xlink" x="0px" y="0px"
	 width="160px" height="110px" viewBox="0 0 160 110" enable-background="new 0 0 160 110" xml:space="preserve">
<g>
	<path fill="none" d="M87.865,47.912V35.387l0.734-0.44c0.681-0.409,1.104-1.153,1.104-1.941c0-1.246-1.014-2.26-2.26-2.26H73.109
		c-1.246,0-2.26,1.014-2.26,2.26c0,0.789,0.423,1.533,1.104,1.94l0.734,0.44v12.525L55.125,83.208
		c-1.589,2.759-1.822,5.304-0.699,7.248c1.122,1.945,3.443,3.016,6.534,3.016h38.634c3.09,0,5.41-1.072,6.533-3.016
		c1.123-1.945,0.891-4.489-0.654-7.166L87.865,47.912z M82.561,32.451c1.381,0,2.5,1.12,2.5,2.5c0,1.381-1.119,2.5-2.5,2.5
		c-1.381,0-2.5-1.119-2.5-2.5C80.061,33.57,81.18,32.451,82.561,32.451z M76.604,49.879h7.344c0.834,0,1.51,0.676,1.51,1.51
		c0,0.834-0.676,1.51-1.51,1.51h-7.344c-0.834,0-1.51-0.676-1.51-1.51C75.094,50.556,75.77,49.879,76.604,49.879z M76.604,55.896
		h7.344c0.834,0,1.51,0.676,1.51,1.51c0,0.834-0.676,1.51-1.51,1.51h-7.344c-0.834,0-1.51-0.676-1.51-1.51
		C75.094,56.572,75.77,55.896,76.604,55.896z M76.604,62.443h7.344c0.834,0,1.51,0.676,1.51,1.51c0,0.834-0.676,1.51-1.51,1.51
		h-7.344c-0.834,0-1.51-0.676-1.51-1.51C75.094,63.119,75.77,62.443,76.604,62.443z M103.145,88.735
		c-0.468,0.811-1.796,1.295-3.552,1.295H60.959c-1.429,0-2.568-0.311-3.205-0.876c-0.145-0.129-0.258-0.266-0.347-0.419
		c-0.088-0.153-0.15-0.319-0.189-0.509c-0.103-0.502-0.032-1.137,0.206-1.835c0.15-0.441,0.364-0.905,0.638-1.379l0.046-0.08
		l0.041-0.083l6.866-13.77c2.318,0.664,5.884,1.46,9.647,1.46c4.185,0,7.736-0.965,10.556-2.87c1.294-0.874,2.587-1.299,3.951-1.299
		c3.045,0,5.644,2.145,6.461,2.897l6.772,13.583l0.041,0.083l0.046,0.08C103.368,86.532,103.613,87.924,103.145,88.735z"/>
	<path fill="#888888" d="M108.133,81.862l-17.247-34.66V37.007c1.151-0.995,1.838-2.46,1.838-4c0-2.912-2.369-5.281-5.281-5.281
		H73.109c-2.912,0-5.281,2.369-5.281,5.281c0,1.541,0.687,3.005,1.838,4v10.196L52.464,81.78c-2.107,3.651-2.34,7.268-0.655,10.187
		c1.685,2.919,4.935,4.527,9.15,4.527h38.634c4.215,0,7.464-1.608,9.15-4.527C110.428,89.048,110.196,85.431,108.133,81.862z
		 M106.126,90.456c-1.123,1.945-3.443,3.016-6.533,3.016H60.959c-3.09,0-5.411-1.072-6.534-3.016
		c-1.123-1.944-0.89-4.489,0.699-7.248l17.562-35.295V35.387l-0.734-0.44c-0.681-0.408-1.104-1.151-1.104-1.94
		c0-1.246,1.014-2.26,2.26-2.26h14.334c1.246,0,2.26,1.014,2.26,2.26c0,0.788-0.423,1.533-1.104,1.941l-0.734,0.44v12.525
		l17.607,35.378C107.017,85.967,107.249,88.511,106.126,90.456z"/>
	<circle fill="#888888" cx="86.13" cy="19.484" r="3.873"/>
	<circle fill="#888888" cx="77.628" cy="23.109" r="2.672"/>
	<circle fill="#888888" cx="82.561" cy="34.951" r="2.5"/>
	<path fill="#888888" d="M76.604,65.464h7.344c0.834,0,1.51-0.676,1.51-1.51c0-0.834-0.676-1.51-1.51-1.51h-7.344
		c-0.834,0-1.51,0.676-1.51,1.51C75.094,64.788,75.77,65.464,76.604,65.464z"/>
	<path fill="#888888" d="M76.604,58.917h7.344c0.834,0,1.51-0.676,1.51-1.51c0-0.834-0.676-1.51-1.51-1.51h-7.344
		c-0.834,0-1.51,0.676-1.51,1.51C75.094,58.241,75.77,58.917,76.604,58.917z"/>
	<path fill="#888888" d="M76.604,52.9h7.344c0.834,0,1.51-0.676,1.51-1.51c0-0.834-0.676-1.51-1.51-1.51h-7.344
		c-0.834,0-1.51,0.676-1.51,1.51C75.094,52.224,75.77,52.9,76.604,52.9z"/>
	<path fill="#888888" d="M102.444,84.932l-0.041-0.083L95.63,71.266c-0.817-0.752-3.416-2.897-6.461-2.897
		c-1.364,0-2.657,0.425-3.951,1.299c-2.82,1.904-6.371,2.87-10.556,2.87c-3.763,0-7.329-0.796-9.647-1.46l-6.866,13.77l-0.041,0.083
		l-0.046,0.08c-0.274,0.474-0.488,0.938-0.638,1.379c-0.237,0.699-0.308,1.333-0.206,1.835c0.039,0.19,0.1,0.356,0.189,0.509
		c0.089,0.153,0.202,0.29,0.347,0.419c0.637,0.565,1.775,0.876,3.205,0.876h38.634c1.756,0,3.084-0.484,3.552-1.295
		c0.468-0.811,0.223-2.202-0.655-3.723L102.444,84.932z"/>
</g>
</svg>
