<?xml version="1.0" encoding="utf-8"?>
<!-- Generator: Adobe Illustrator 17.0.0, SVG Export Plug-In . SVG Version: 6.00 Build 0)  -->
<!DOCTYPE svg PUBLIC "-//W3C//DTD SVG 1.1//EN" "http://www.w3.org/Graphics/SVG/1.1/DTD/svg11.dtd">
<svg version="1.1" id="Layer_1" xmlns="http://www.w3.org/2000/svg" xmlns:xlink="http://www.w3.org/1999/xlink" x="0px" y="0px"
	 width="160px" height="110px" viewBox="0 0 160 110" enable-background="new 0 0 160 110" xml:space="preserve">
<g>
	<g>
		<path fill="#888888" d="M73.869,51.117c-0.505-0.534-1.348-0.557-1.883-0.05l-10.191,9.66c-0.265,0.251-0.416,0.601-0.416,0.966
			c0,0.365,0.15,0.715,0.416,0.966l10.191,9.66c0.258,0.245,0.587,0.365,0.916,0.365c0.352,0,0.705-0.139,0.966-0.416
			c0.506-0.534,0.484-1.377-0.05-1.883l-9.171-8.693l9.171-8.693C74.353,52.493,74.375,51.651,73.869,51.117z"/>
		<path fill="#888888" d="M100.753,60.726l-10.192-9.66c-0.533-0.507-1.377-0.484-1.883,0.05c-0.507,0.534-0.484,1.377,0.05,1.883
			l9.172,8.693l-9.172,8.693c-0.534,0.506-0.557,1.349-0.05,1.883c0.261,0.276,0.614,0.416,0.966,0.416
			c0.329,0,0.659-0.121,0.916-0.365l10.192-9.66c0.265-0.251,0.416-0.601,0.416-0.966C101.168,61.327,101.018,60.977,100.753,60.726
			z"/>
		<path fill="#888888" d="M85.85,47.758c-0.702-0.228-1.45,0.161-1.675,0.861l-8.338,25.963c-0.225,0.7,0.161,1.45,0.861,1.675
			c0.135,0.044,0.272,0.064,0.407,0.064c0.563,0,1.087-0.36,1.268-0.925l8.338-25.963C86.936,48.733,86.55,47.983,85.85,47.758z"/>
	</g>
	<path fill="none" d="M55.602,79.695c0,3.663,2.997,6.659,6.659,6.659h37.054c3.662,0,6.659-2.997,6.659-6.659V36.193H55.602V79.695
		z"/>
	<path fill="#888888" d="M99.315,20.49H62.261c-5.141,0-9.323,4.182-9.323,9.323v49.883c0,5.141,4.182,9.323,9.323,9.323h37.054
		c5.141,0,9.323-4.182,9.323-9.323V29.813C108.638,24.672,104.456,20.49,99.315,20.49z M75.595,26.427
		c1.057,0,1.914,0.857,1.914,1.914c0,1.057-0.857,1.914-1.914,1.914c-1.057,0-1.914-0.857-1.914-1.914
		C73.681,27.284,74.538,26.427,75.595,26.427z M68.936,26.427c1.057,0,1.914,0.857,1.914,1.914c0,1.057-0.857,1.914-1.914,1.914
		c-1.057,0-1.914-0.857-1.914-1.914C67.021,27.284,67.878,26.427,68.936,26.427z M62.276,26.427c1.057,0,1.914,0.857,1.914,1.914
		c0,1.057-0.857,1.914-1.914,1.914s-1.914-0.857-1.914-1.914C60.362,27.284,61.219,26.427,62.276,26.427z M55.877,28.032
		l-0.193,0.981L55.877,28.032z M105.975,79.695c0,3.663-2.997,6.659-6.659,6.659H62.261c-3.663,0-6.659-2.997-6.659-6.659V36.193
		h50.372V79.695z"/>
</g>
</svg>
