<?xml version="1.0" encoding="UTF-8" standalone="no"?>
<svg width="1600px" height="290px" viewBox="0 0 1600 290" version="1.1" xmlns="http://www.w3.org/2000/svg" xmlns:xlink="http://www.w3.org/1999/xlink" xmlns:sketch="http://www.bohemiancoding.com/sketch/ns">
    <!-- Generator: Sketch 3.3.2 (12043) - http://www.bohemiancoding.com/sketch -->
    <title>line2</title>
    <desc>Created with Sketch.</desc>
    <defs></defs>
    <g id="Page-1" stroke="none" stroke-width="1" fill="none" fill-rule="evenodd" sketch:type="MSPage">
        <g id="line2" sketch:type="MSArtboardGroup" stroke="#0095E7" stroke-width="2" opacity="0.400000006">
            <g id="Imported-Layers-Copy-7-+-Imported-Layers-Copy-8-+-Imported-Layers" sketch:type="MSLayerGroup" transform="translate(1.000000, 8.000000)">
                <path d="M0.164041624,256.516285 C52.9267876,234.367433 86.2897517,205.63 121.356,205.63 C178.354,205.63 224.476,263.895 298.348,263.895 C372.219,263.895 400.342,78.314 512.837,78.314 C625.331,78.314 658.33,205.63 725.826,205.63 C793.323,205.63 841.32,94.738 943.315,94.738 C1045.31,94.738 1102.307,166.735 1174.304,166.735 C1246.3,166.735 1288.298,0.095 1364.794,0.095 C1417.729,0.095 1461.226,50.684 1483,81.849 C1492.692,95.72 1597.282,281.7 1597.282,281.7" id="Stroke-2" sketch:type="MSShapeGroup"></path>
            </g>
        </g>
    </g>
</svg>