<?xml version="1.0" encoding="UTF-8" standalone="no"?>
<svg width="1600px" height="290px" viewBox="0 0 1600 290" version="1.1" xmlns="http://www.w3.org/2000/svg" xmlns:xlink="http://www.w3.org/1999/xlink" xmlns:sketch="http://www.bohemiancoding.com/sketch/ns">
    <!-- Generator: Sketch 3.3.2 (12043) - http://www.bohemiancoding.com/sketch -->
    <title>line3</title>
    <desc>Created with Sketch.</desc>
    <defs></defs>
    <g id="Page-1" stroke="none" stroke-width="1" fill="none" fill-rule="evenodd" sketch:type="MSPage">
        <g id="line3" sketch:type="MSArtboardGroup" stroke="#0B9D76" stroke-width="2" opacity="0.400000006">
            <g id="Imported-Layers-Copy-7-+-Imported-Layers-Copy-8-+-Imported-Layers" sketch:type="MSLayerGroup" transform="translate(0.000000, 3.000000)">
                <path d="M0,270 C81.3994064,247.636131 144.172298,205.535 184.113,205.535 C241.111,205.535 287.233,263.8 361.104,263.8 C434.976,263.8 463.1,78.219 575.594,78.219 C688.088,78.219 721.087,205.535 788.583,205.535 C856.08,205.535 904.077,94.643 1006.072,94.643 C1108.067,94.643 1165.064,166.64 1237.061,166.64 C1309.057,166.64 1351.055,0 1427.551,0 C1477.907,0 1519.723,45.78 1542.421,77.068 C1547.80246,84.4857808 1573.00643,130.239899 1598.80568,177.768823" id="Imported-Layers" sketch:type="MSShapeGroup"></path>
            </g>
        </g>
    </g>
</svg>