<?xml version="1.0" encoding="UTF-8" standalone="no"?>
<svg width="47px" height="46px" viewBox="0 0 47 46" version="1.1" xmlns="http://www.w3.org/2000/svg" xmlns:xlink="http://www.w3.org/1999/xlink" xmlns:sketch="http://www.bohemiancoding.com/sketch/ns">
    <!-- Generator: Sketch 3.3.2 (12043) - http://www.bohemiancoding.com/sketch -->
    <title>Artboard 32</title>
    <desc>Created with Sketch.</desc>
    <defs></defs>
    <g id="Page-1" stroke="none" stroke-width="1" fill="none" fill-rule="evenodd" sketch:type="MSPage">
        <g id="Artboard-32" sketch:type="MSArtboardGroup" fill="#FFFFFF">
            <g id="opt_circle_mark_WHITE" sketch:type="MSLayerGroup">
                <g id="Group" sketch:type="MSShapeGroup">
                    <path d="M46.9919932,4.17816476 L39.9059625,6.76927469 C36.2788756,2.60730437 30.9463373,0.0323888741 24.7730835,0.0323888741 C12.4425894,0.0242916556 1.44122658,10.2915648 0.192163543,22.9556145 C-1.05689949,35.6196643 7.91873935,45.8869374 20.2412266,45.8869374 C32.5637138,45.8869374 43.5730835,35.6196643 44.8221465,22.9556145 C45.2465077,18.6397971 44.4858603,14.6073822 42.8124361,11.1579671 L46.9919932,4.17816476 L46.9919932,4.17816476 Z M41.7715503,20.6883933 C40.8187394,30.3402778 32.0993186,38.1621909 22.2989779,38.1621909 C12.4986371,38.1621909 5.33253833,30.3402778 6.28534923,20.6883933 C7.23816014,11.0365089 15.9575809,3.21459576 25.7579216,3.21459576 C31.3306644,3.21459576 36.0546848,5.74902516 38.9131175,9.70856502 L43.6051107,6.83405244 L39.713799,10.9231478 L36.8954003,13.8867298 L21.1780239,30.3726667 C22.4190801,30.8584998 23.7882453,31.125708 25.2534923,31.125708 C31.6429302,31.125708 37.3277683,26.0244604 37.944293,19.7329216 C38.072402,18.3968805 37.9683135,17.11752 37.6560477,15.9272288 L40.3143101,12.08105 C41.5313458,14.6235767 42.0758092,17.5547698 41.7715503,20.6883933 L41.7715503,20.6883933 Z" id="Shape"></path>
                    <path d="M27.511414,8.34013509 C21.1219761,8.34013509 15.437138,13.4413828 14.8206133,19.7329216 C14.6684838,21.303782 14.8446337,22.8098646 15.2930153,24.1701973 L35.4781942,11.8057446 C33.5805792,9.66807893 30.7701874,8.34013509 27.511414,8.34013509 L27.511414,8.34013509 Z" id="Shape"></path>
                </g>
            </g>
        </g>
    </g>
</svg>