<?xml version="1.0" encoding="UTF-8" standalone="no"?>
<svg width="100px" height="24px" viewBox="0 0 100 24" version="1.1" xmlns="http://www.w3.org/2000/svg" xmlns:xlink="http://www.w3.org/1999/xlink" xmlns:sketch="http://www.bohemiancoding.com/sketch/ns">
    <!-- Generator: Sketch 3.3.1 (12005) - http://www.bohemiancoding.com/sketch -->
    <title>Artboard 20</title>
    <desc>Created with Sketch.</desc>
    <defs></defs>
    <g id="Page-1" stroke="none" stroke-width="1" fill="none" fill-rule="evenodd" sketch:type="MSPage">
        <g id="Artboard-20" sketch:type="MSArtboardGroup" fill="#3B5871">
            <g id="Imported-EPS-2-Copy" sketch:type="MSLayerGroup">
                <path d="M17.4087403,9.94480982 L17.6160154,7.82781595 C17.5765974,6.8556319 17.3501424,5.97806135 16.9424704,5.17202454 L15.8525234,6.71 C16.0031847,7.22220859 16.063899,7.77544785 16.0185286,8.35257669 C15.8112535,10.9975706 13.4559625,13.1415583 10.7578144,13.1415583 C10.124481,13.1415583 9.52844928,13.0234601 8.98982494,12.808454 L15.5037138,5.86495706 L18.2541107,3.01791411 L16.2952482,4.07445399 C14.9961741,2.40569325 12.9080789,1.41474847 10.5140313,1.51246626 C6.39524822,1.68063804 2.8959096,5.09981595 2.698026,9.14930061 C2.50001013,13.1991902 5.67792018,16.345865 9.79657097,16.1778282 C13.4287138,16.0296319 16.5792429,13.3525153 17.4087403,9.94480982 L17.4087403,9.94480982 Z M24.8070207,11.6182945 C24.9183964,10.4829325 24.8260683,9.65894479 24.5301689,9.14646626 C24.2411477,8.63425767 23.7333435,8.37835583 23.0075498,8.37808589 C22.6885022,8.37808589 22.3644281,8.42977914 22.0355921,8.53370552 C21.7131054,8.63749693 21.3892958,8.7933865 21.0635022,9.00110429 L20.4885022,14.8687607 C20.6701159,14.9520368 20.8711741,15.0110184 21.0919413,15.0455706 C21.31919,15.0801227 21.5887667,15.0972638 21.9012006,15.0972638 C22.7695868,15.0972638 23.4424704,14.8100491 23.9195868,14.2353497 C24.3971001,13.6537669 24.692735,12.7813252 24.8070207,11.6182945 L24.8070207,11.6182945 Z M32.8439255,17.7662822 C31.3915445,17.7662822 30.3628408,17.4621963 29.7579466,16.8526748 C29.1592694,16.2432883 28.9277879,15.2464049 29.0637667,13.8614847 L29.5982906,8.40912883 L28.2969678,8.40912883 C28.523026,9.28791411 28.5765974,10.3333865 28.4579466,11.545411 C28.2752747,13.4081227 27.6632376,14.9103313 26.6218355,16.0529816 C25.5869149,17.1954969 24.3908831,17.7662822 23.0341371,17.7662822 C22.463899,17.7662822 21.9748779,17.7005521 21.5672059,17.569227 C21.1595339,17.4376319 20.7314916,17.2334233 20.2837403,16.9564663 L19.8075498,21.8168466 L16.2452482,21.8168466 L16.8904863,15.2320982 C14.9883699,17.8312025 11.978317,19.540184 8.71588314,19.540184 C3.49657097,19.540184 -0.391524264,15.1659632 0.0314916095,9.77015951 C0.454639758,4.37422086 5.02844928,0 10.2481583,0 C12.8939255,0 15.1978937,1.12402454 16.7711741,2.93544785 L19.7734228,1.76229448 L17.9996133,4.7792638 C18.1743488,5.13072393 18.3273911,5.49689571 18.4570207,5.87480982 L21.3699837,5.87521472 L21.2509361,7.09020859 C21.8179995,6.63293252 22.3869149,6.26271166 22.9576821,5.97900613 C23.5281847,5.69530061 24.1694546,5.55344785 24.8825498,5.55304294 C25.4742165,5.55304294 25.995645,5.66047853 26.4468355,5.87480982 L29.846571,5.87521472 L30.1731583,2.54120245 L33.7357244,2.54120245 L33.4088726,5.87521472 L36.8390313,5.87521472 L36.5907509,8.40912883 L33.1605921,8.40912883 L32.7554334,12.5426994 C32.715354,12.9512515 32.6837403,13.3078405 32.6608567,13.6123313 C32.6377085,13.917092 32.6648249,14.1905399 32.7431318,14.4328098 C32.8142958,14.6752147 32.9616503,14.8687607 33.185063,15.0141227 C33.4156186,15.1528712 33.7613858,15.2219755 34.223026,15.2219755 C34.4129731,15.2219755 34.6644281,15.1804049 34.9781847,15.0972638 C35.2985551,15.0141227 35.5228937,14.938135 35.6519943,14.8687607 L35.9575498,14.8687607 L35.7062271,17.4339877 C35.3091371,17.5379141 34.8907509,17.617546 34.4510683,17.6730184 C34.0103276,17.7353742 33.4748779,17.7662822 32.8439255,17.7662822 L32.8439255,17.7662822 Z M6.24815828,8.35257669 C6.45569796,5.70744785 8.81085669,3.56305521 11.5090048,3.56305521 C12.8616503,3.56305521 14.0437932,4.10225767 14.8603276,4.97321472 L6.85966621,11.008773 C6.40133288,10.2486258 6.17117415,9.33488344 6.24815828,8.35257669 L6.24815828,8.35257669 Z M40.0355921,17.5379141 L36.4732906,17.5379141 L37.6165445,5.87521472 L41.1788461,5.87521472 L40.0355921,17.5379141 L40.0355921,17.5379141 Z M41.4433964,4.21320245 L37.6775234,4.21320245 L37.9553011,1.37803681 L41.7214387,1.37803681 L41.4433964,4.21320245 L41.4433964,4.21320245 Z M54.5115181,17.5379141 L55.0826821,11.7116933 C55.1390313,11.1372638 55.1762006,10.6528589 55.1945868,10.2576687 C55.2128408,9.8630184 55.1833435,9.5409816 55.1059625,9.29182822 C55.0288461,9.04253988 54.8867826,8.86276074 54.6805657,8.75195092 C54.4814916,8.63425767 54.1890313,8.57554601 53.8022588,8.5751411 C53.5305657,8.5751411 53.2566239,8.63749693 52.979772,8.76207362 C52.7038461,8.88003681 52.3984228,9.04969325 52.0649572,9.27104294 L51.2545075,17.5379141 L47.6718355,17.5379141 L48.2429995,11.7116933 C48.2984228,11.1438773 48.3318884,10.6631166 48.3436609,10.2681963 C48.3625763,9.86652761 48.3334757,9.5413865 48.2560948,9.29182822 C48.1788461,9.04253988 48.0366503,8.86276074 47.8305657,8.75195092 C47.6316239,8.63425767 47.3420736,8.57554601 46.962444,8.5751411 C46.6705128,8.5751411 46.3787138,8.64492025 46.0871794,8.7828589 C45.7953805,8.92147239 45.5079466,9.08411043 45.2250101,9.27104294 L44.4148249,17.5379141 L40.8525234,17.5379141 L41.9953805,5.87521472 L45.5580789,5.87521472 L45.4317562,7.16268712 C46.0646927,6.6576319 46.6529202,6.26271166 47.196571,5.97900613 C47.7400895,5.69530061 48.3340048,5.55344785 48.9787138,5.55304294 C49.6776556,5.55304294 50.2748779,5.72283436 50.7711741,6.06201227 C51.2672059,6.40132515 51.6211741,6.90678528 51.8337403,7.57839264 C52.5826821,6.92757055 53.2763329,6.42912883 53.9142958,6.08279755 C54.5594017,5.72944785 55.19419,5.55304294 55.8185286,5.55304294 C56.3477615,5.55304294 56.8142958,5.63969325 57.2179995,5.81258896 C57.6214387,5.98602454 57.9522588,6.24584049 58.2104599,6.59149693 C58.4924704,6.9656319 58.6862535,7.41184049 58.7916768,7.93147239 C58.9042429,8.44381595 58.9199837,9.11542331 58.8383699,9.94615951 L58.0943223,17.5379141 L54.5115181,17.5379141 L54.5115181,17.5379141 Z M63.7895604,4.21320245 L60.0236874,4.21320245 L60.3014652,1.37803681 L64.0674704,1.37803681 L63.7895604,4.21320245 L63.7895604,4.21320245 Z M73.0371794,14.7548466 C72.6161477,13.8548712 72.46919,12.7563558 72.5961741,11.4595706 C72.7828144,9.55569325 73.467735,8.03580368 74.6513329,6.90003681 C75.8345339,5.76494479 77.3899572,5.1972638 79.3170736,5.1968589 C81.0674704,5.1968589 82.3365181,5.67842945 83.1247456,6.64076074 C83.9123117,7.60322699 84.2182641,8.98099387 84.042735,10.7739264 L83.9144281,12.082589 L76.1076821,12.082589 C76.0886345,12.6226012 76.1559625,13.0765031 76.3101953,13.4429448 C76.4648249,13.8033129 76.6877085,14.0906626 76.9789784,14.3049939 C77.2632376,14.519865 77.6043752,14.6756196 78.0019943,14.7723926 C78.4000101,14.8626871 78.8400895,14.9076319 79.3219678,14.9076319 C79.7357244,14.9076319 80.1473646,14.8626871 80.5564916,14.7723926 C80.96628,14.6756196 81.3448514,14.5510429 81.692735,14.3985276 C81.9972324,14.2672025 82.2787138,14.1254847 82.5383699,13.9726994 C82.8042429,13.820589 83.0210419,13.6854847 83.1886345,13.5676564 L83.565354,13.5676564 L83.2710419,16.5692393 C82.9676027,16.6870675 82.6890313,16.7976074 82.4344017,16.9015337 C82.1873117,16.9985767 81.8482906,17.0989939 81.4176027,17.2026503 C81.0207773,17.3065767 80.612444,17.3862086 80.1931318,17.441411 C79.8834757,17.4883804 79.5236874,17.5173988 79.1144281,17.5292761 L62.3820207,17.5379141 L58.8193223,17.5379141 L59.9625763,5.87521472 L63.5247456,5.87521472 L62.6599308,14.6995092 L68.3457773,8.60645399 L64.1025234,8.62211043 L64.4107244,5.9483681 L73.0410154,5.87521472 L72.8099308,8.23231902 L66.7051689,14.7548466 L73.0371794,14.7548466 L73.0371794,14.7548466 Z M80.617735,9.89109202 C80.6727615,9.12284663 80.5535816,8.5377546 80.2604599,8.13622086 C79.9742165,7.73455215 79.4914122,7.53398773 78.8131054,7.53371779 C78.1210419,7.53371779 77.5572853,7.74521472 77.1224969,8.1672638 C76.6943223,8.58985276 76.4243488,9.16428221 76.312444,9.89109202 L80.617735,9.89109202 L80.617735,9.89109202 Z M99.8288461,5.56046626 L92.4952482,21.5022331 L88.6681318,21.5022331 L90.8455128,16.9429693 L88.4179995,7.96521472 L87.5105921,17.2235706 L83.948026,17.2235706 L85.5320207,1.06355828 L89.0944546,1.06355828 L88.6535816,5.56046626 L91.5132376,5.56046626 L93.1986874,12.8720245 L96.1648249,5.56046626 L99.8288461,5.56046626 L99.8288461,5.56046626 Z" id="Page-1" sketch:type="MSShapeGroup"></path>
            </g>
        </g>
    </g>
</svg>