<?xml version="1.0" encoding="UTF-8" standalone="no"?>
<svg width="209px" height="24px" viewBox="0 0 209 24" version="1.1" xmlns="http://www.w3.org/2000/svg" xmlns:xlink="http://www.w3.org/1999/xlink" xmlns:sketch="http://www.bohemiancoding.com/sketch/ns">
    <!-- Generator: Sketch 3.3.2 (12043) - http://www.bohemiancoding.com/sketch -->
    <title>Developer logo</title>
    <desc>Created with Sketch.</desc>
    <defs></defs>
    <g id="Page-1" stroke="none" stroke-width="1" fill="none" fill-rule="evenodd" sketch:type="MSPage">
        <g id="Developer-logo" sketch:type="MSArtboardGroup" fill="#FFFFFF">
            <g id="Imported-EPS-2" sketch:type="MSLayerGroup" transform="translate(0.000000, 1.000000)">
                <path d="M17.7569151,9.94480982 L17.9683357,7.82781595 C17.9281294,6.8556319 17.6971453,5.97806135 17.2813199,5.17202454 L16.1695738,6.71 C16.3232484,7.22220859 16.385177,7.77544785 16.3388992,8.35257669 C16.1274786,10.9975706 13.7250818,13.1415583 10.9729706,13.1415583 C10.3269706,13.1415583 9.71901827,13.0234601 9.16962144,12.808454 L15.8137881,5.86495706 L18.6191929,3.01791411 L16.6211532,4.07445399 C15.2960976,2.40569325 13.1662405,1.41474847 10.7243119,1.51246626 C6.52315319,1.68063804 2.95382779,5.09981595 2.75198652,9.14930061 C2.55001033,13.1991902 5.79147858,16.345865 9.99250239,16.1778282 C13.6972881,16.0296319 16.9108278,13.3525153 17.7569151,9.94480982 L17.7569151,9.94480982 Z M25.3031611,11.6182945 C25.4167643,10.4829325 25.3225897,9.65894479 25.0207722,9.14646626 C24.7259706,8.63425767 24.2080103,8.37835583 23.4677008,8.37808589 C23.1422722,8.37808589 22.8117167,8.42977914 22.476304,8.53370552 C22.1473675,8.63749693 21.8170818,8.7933865 21.4847722,9.00110429 L20.8982722,14.8687607 C21.0835183,14.9520368 21.2885976,15.0110184 21.5137802,15.0455706 C21.7455738,15.0801227 22.0205421,15.0972638 22.3392246,15.0972638 C23.2249786,15.0972638 23.9113199,14.8100491 24.3979786,14.2353497 C24.8850421,13.6537669 25.1865897,12.7813252 25.3031611,11.6182945 L25.3031611,11.6182945 Z M33.500804,17.7662822 C32.0193754,17.7662822 30.9700976,17.4621963 30.3531056,16.8526748 C29.7424548,16.2432883 29.5063437,15.2464049 29.6450421,13.8614847 L30.1902564,8.40912883 L28.8629072,8.40912883 C29.0934865,9.28791411 29.1481294,10.3333865 29.0271056,11.545411 C28.8407802,13.4081227 28.2165024,14.9103313 27.1542722,16.0529816 C26.0986532,17.1954969 24.8787008,17.7662822 23.4948199,17.7662822 C22.913177,17.7662822 22.4143754,17.7005521 21.99855,17.569227 C21.5827246,17.4376319 21.1461214,17.2334233 20.6894151,16.9564663 L20.2037008,21.8168466 L16.5701532,21.8168466 L17.228296,15.2320982 C15.2881373,17.8312025 12.2178833,19.540184 8.89020081,19.540184 C3.56650239,19.540184 -0.399354749,15.1659632 0.0321214417,9.77015951 C0.463732553,4.37422086 5.12901827,0 10.4531214,0 C13.151804,0 15.5018516,1.12402454 17.1065976,2.93544785 L20.1688913,1.76229448 L18.3596056,4.7792638 C18.5378357,5.13072393 18.6939389,5.49689571 18.8261611,5.87480982 L21.7973833,5.87521472 L21.6759548,7.09020859 C22.2543595,6.63293252 22.8346532,6.26271166 23.4168357,5.97900613 C23.9987484,5.69530061 24.6528437,5.55344785 25.3802008,5.55304294 C25.9837008,5.55304294 26.5155579,5.66047853 26.9757722,5.87480982 L30.4435024,5.87521472 L30.7766214,2.54120245 L34.4104389,2.54120245 L34.07705,5.87521472 L37.5758119,5.87521472 L37.3225659,8.40912883 L33.823804,8.40912883 L33.4105421,12.5426994 C33.3696611,12.9512515 33.3374151,13.3078405 33.3140738,13.6123313 C33.2904627,13.917092 33.3181214,14.1905399 33.3979945,14.4328098 C33.4705818,14.6752147 33.6208833,14.8687607 33.8487643,15.0141227 C34.083931,15.1528712 34.4366135,15.2219755 34.9074865,15.2219755 C35.1012326,15.2219755 35.3577167,15.1804049 35.6777484,15.0972638 C36.0045262,15.0141227 36.2333516,14.938135 36.3650341,14.8687607 L36.6767008,14.8687607 L36.4203516,17.4339877 C36.0153199,17.5379141 35.5885659,17.617546 35.1400897,17.6730184 C34.6905341,17.7353742 34.1443754,17.7662822 33.500804,17.7662822 L33.500804,17.7662822 Z M6.37312144,8.35257669 C6.58481192,5.70744785 8.98707382,3.56305521 11.7391849,3.56305521 C13.1188833,3.56305521 14.3246691,4.10225767 15.1575341,4.97321472 L6.99685954,11.008773 C6.52935954,10.2486258 6.29459763,9.33488344 6.37312144,8.35257669 L6.37312144,8.35257669 Z M40.836304,17.5379141 L37.2027564,17.5379141 L38.3688754,5.87521472 L42.002423,5.87521472 L40.836304,17.5379141 L40.836304,17.5379141 Z M42.2722643,4.21320245 L38.4310738,4.21320245 L38.7144072,1.37803681 L42.5558675,1.37803681 L42.2722643,4.21320245 L42.2722643,4.21320245 Z M55.6017484,17.5379141 L56.1843357,11.7116933 C56.2418119,11.1372638 56.2797246,10.6528589 56.2984786,10.2576687 C56.3170976,9.8630184 56.2870103,9.5409816 56.2080818,9.29182822 C56.129423,9.04253988 55.9845183,8.86276074 55.774177,8.75195092 C55.5711214,8.63425767 55.2728119,8.57554601 54.878304,8.5751411 C54.601177,8.5751411 54.3217564,8.63749693 54.0393675,8.76207362 C53.757923,8.88003681 53.4463913,9.04969325 53.1062564,9.27104294 L52.2795976,17.5379141 L48.6252722,17.5379141 L49.2078595,11.7116933 C49.2643913,11.1438773 49.2985262,10.6631166 49.3105341,10.2681963 C49.3298278,9.86652761 49.3001453,9.5413865 49.2212167,9.29182822 C49.142423,9.04253988 48.9973833,8.86276074 48.787177,8.75195092 C48.5842564,8.63425767 48.2889151,8.57554601 47.9016929,8.5751411 C47.603923,8.5751411 47.3062881,8.64492025 47.008923,8.7828589 C46.7112881,8.92147239 46.4181056,9.08411043 46.1295103,9.27104294 L45.3031214,17.5379141 L41.6695738,17.5379141 L42.8352881,5.87521472 L46.4692405,5.87521472 L46.3403913,7.16268712 C46.9859865,6.6576319 47.5859786,6.26271166 48.1405024,5.97900613 C48.6948913,5.69530061 49.3006849,5.55344785 49.9582881,5.55304294 C50.6712087,5.55304294 51.2803754,5.72283436 51.7865976,6.06201227 C52.29255,6.40132515 52.6535976,6.90678528 52.8704151,7.57839264 C53.6343357,6.92757055 54.3418595,6.42912883 54.9925818,6.08279755 C55.6505897,5.72944785 56.2980738,5.55304294 56.9348992,5.55304294 C57.4747167,5.55304294 57.9505818,5.63969325 58.3623595,5.81258896 C58.7738675,5.98602454 59.111304,6.24584049 59.3746691,6.59149693 C59.6623199,6.9656319 59.8599786,7.41184049 59.9675103,7.93147239 C60.0823278,8.44381595 60.0983833,9.11542331 60.0151373,9.94615951 L59.2562087,17.5379141 L55.6017484,17.5379141 L55.6017484,17.5379141 Z M65.0653516,4.21320245 L61.2241611,4.21320245 L61.5074945,1.37803681 L65.3488199,1.37803681 L65.0653516,4.21320245 L65.0653516,4.21320245 Z M74.497923,14.7548466 C74.0684706,13.8548712 73.9185738,12.7563558 74.0480976,11.4595706 C74.2384706,9.55569325 74.9370897,8.03580368 76.1443595,6.90003681 C77.3512246,5.76494479 78.9377564,5.1972638 80.9034151,5.1968589 C82.6888199,5.1968589 83.9832484,5.67842945 84.7872405,6.64076074 C85.5905579,7.60322699 85.9026294,8.98099387 85.7235897,10.7739264 L85.5927167,12.082589 L77.6298357,12.082589 C77.6104072,12.6226012 77.6790818,13.0765031 77.8363992,13.4429448 C77.9941214,13.8033129 78.2214627,14.0906626 78.5185579,14.3049939 C78.8085024,14.519865 79.1564627,14.6756196 79.5620341,14.7723926 C79.9680103,14.8626871 80.4168913,14.9076319 80.9084072,14.9076319 C81.3304389,14.9076319 81.7503119,14.8626871 82.1676214,14.7723926 C82.5856056,14.6756196 82.9717484,14.5510429 83.3265897,14.3985276 C83.637177,14.2672025 83.9242881,14.1254847 84.1891373,13.9726994 C84.4603278,13.820589 84.6814627,13.6854847 84.8524072,13.5676564 L85.2366611,13.5676564 L84.9364627,16.5692393 C84.6269548,16.6870675 84.3428119,16.7976074 84.0830897,16.9015337 C83.8310579,16.9985767 83.4852564,17.0989939 83.0459548,17.2026503 C82.6411929,17.3065767 82.2246929,17.3862086 81.7969945,17.441411 C81.4811453,17.4883804 81.1141611,17.5173988 80.6967167,17.5292761 L63.6296611,17.5379141 L59.9957087,17.5379141 L61.1618278,5.87521472 L64.7952405,5.87521472 L63.9131294,14.6995092 L69.7126929,8.60645399 L65.3845738,8.62211043 L65.6989389,5.9483681 L74.5018357,5.87521472 L74.2661294,8.23231902 L68.0392722,14.7548466 L74.497923,14.7548466 L74.497923,14.7548466 Z M82.2300897,9.89109202 C82.2862167,9.12284663 82.1646532,8.5377546 81.8656691,8.13622086 C81.5737008,7.73455215 81.0812405,7.53398773 80.3893675,7.53371779 C79.6834627,7.53371779 79.108431,7.74521472 78.6649468,8.1672638 C78.2282087,8.58985276 77.9528357,9.16428221 77.8386929,9.89109202 L82.2300897,9.89109202 L82.2300897,9.89109202 Z M101.825423,5.56046626 L94.3451532,21.5022331 L90.4414945,21.5022331 L92.662423,16.9429693 L90.1863595,7.96521472 L89.260804,17.2235706 L85.6269865,17.2235706 L87.2426611,1.06355828 L90.8763437,1.06355828 L90.4266532,5.56046626 L93.3435024,5.56046626 L95.0626611,12.8720245 L98.0881214,5.56046626 L101.825423,5.56046626 L101.825423,5.56046626 Z" id="Page-1" sketch:type="MSShapeGroup"></path>
            </g>
            <text id="DEVELOPERS" sketch:type="MSTextLayer" font-family="Proxima Nova" font-size="15" font-weight="normal" letter-spacing="0.899999976">
                <tspan x="109" y="19">DEVELOPER</tspan>
                <tspan x="199.615" y="19">S</tspan>
            </text>
        </g>
    </g>
</svg>