<?xml version="1.0" encoding="UTF-8" standalone="no"?>
<svg width="115px" height="115px" viewBox="0 0 115 115" version="1.1" xmlns="http://www.w3.org/2000/svg" xmlns:xlink="http://www.w3.org/1999/xlink" xmlns:sketch="http://www.bohemiancoding.com/sketch/ns">
    <!-- Generator: Sketch 3.3.2 (12043) - http://www.bohemiancoding.com/sketch -->
    <title>Imported Layers Copy 5</title>
    <desc>Created with Sketch.</desc>
    <defs></defs>
    <g id="Page-1" stroke="none" stroke-width="1" fill="none" fill-rule="evenodd" sketch:type="MSPage">
        <g id="Artboard-25" sketch:type="MSArtboardGroup" transform="translate(-873.000000, -140.000000)">
            <g id="Imported-Layers-Copy-5" sketch:type="MSLayerGroup" transform="translate(873.000000, 140.000000)">
                <path d="M114.099,57.756 C114.099,89.18 88.625,114.654 57.201,114.654 C25.777,114.654 0.303,89.18 0.303,57.756 C0.303,26.332 25.777,0.858 57.201,0.858 C88.625,0.858 114.099,26.332 114.099,57.756" id="Fill-1" fill="#D6DEEE" sketch:type="MSShapeGroup"></path>
                <path d="M38.548,45.009 C36.694,45.008 35.191,46.514 35.191,48.366 L35.193,62.428 C35.194,64.287 36.699,65.788 38.551,65.79 C40.407,65.787 41.91,64.287 41.908,62.429 L41.909,48.365 C41.908,46.512 40.403,45.007 38.548,45.009" id="Fill-2" fill="#15384C" sketch:type="MSShapeGroup"></path>
                <path d="M65.628,32.381 L67.972,28.101 C68.097,27.877 68.015,27.591 67.789,27.467 C67.56,27.344 67.277,27.428 67.156,27.653 L64.788,31.976 C62.796,31.092 60.566,30.594 58.208,30.596 C55.856,30.594 53.63,31.089 51.644,31.971 L49.275,27.657 C49.152,27.43 48.866,27.347 48.644,27.472 C48.416,27.594 48.332,27.88 48.458,28.103 L50.804,32.379 C46.196,34.756 43.084,39.28 43.086,44.475 L73.335,44.472 C73.335,39.278 70.228,34.763 65.628,32.381 M51.329,38.995 C50.632,38.993 50.065,38.427 50.065,37.728 C50.065,37.031 50.632,36.458 51.33,36.458 C52.031,36.457 52.599,37.031 52.6,37.727 C52.6,38.426 52.031,38.994 51.329,38.995 M65.102,38.992 C64.403,38.993 63.833,38.427 63.834,37.724 C63.834,37.029 64.402,36.456 65.103,36.454 C65.798,36.456 66.369,37.029 66.368,37.725 C66.368,38.425 65.801,38.992 65.102,38.992" id="Fill-3" fill="#15384C" sketch:type="MSShapeGroup"></path>
                <path d="M43.215,67.433 C43.213,69.417 44.815,71.019 46.798,71.018 L49.237,71.019 L49.24,78.459 C49.24,80.311 50.745,81.817 52.596,81.817 C54.451,81.817 55.954,80.31 55.953,78.456 L55.953,71.018 L60.487,71.017 L60.486,78.457 C60.488,80.31 61.995,81.817 63.845,81.814 C65.701,81.815 67.205,80.308 67.204,78.454 L67.202,71.016 L69.651,71.015 C71.627,71.016 73.234,69.41 73.234,67.43 L73.23,45.637 L43.21,45.643 L43.215,67.433" id="Fill-4" fill="#15384C" sketch:type="MSShapeGroup"></path>
                <path d="M77.884,45.004 C76.03,45.003 74.527,46.508 74.527,48.363 L74.529,62.425 C74.53,64.282 76.032,65.784 77.888,65.783 C79.742,65.782 81.243,64.281 81.244,62.424 L81.241,48.362 C81.24,46.507 79.739,45.004 77.884,45.004" id="Fill-5" fill="#15384C" sketch:type="MSShapeGroup"></path>
                <path d="M38.548,45.009 C36.694,45.008 35.191,46.514 35.191,48.366 L35.193,62.428 C35.194,64.287 36.697,65.788 38.552,65.787 C40.407,65.787 41.91,64.287 41.908,62.429 L41.909,48.365 C41.908,46.512 40.403,45.007 38.548,45.009 L38.548,45.009 Z M65.628,32.381 L67.972,28.101 C68.097,27.877 68.014,27.592 67.788,27.466 C67.559,27.345 67.277,27.427 67.156,27.653 L64.789,31.977 C62.796,31.091 60.567,30.593 58.208,30.596 C55.856,30.594 53.628,31.09 51.644,31.971 L49.275,27.657 C49.151,27.43 48.867,27.347 48.644,27.471 C48.416,27.594 48.332,27.88 48.458,28.103 L50.804,32.38 C46.196,34.756 43.084,39.28 43.086,44.475 L73.335,44.472 C73.335,39.278 70.228,34.763 65.628,32.381 L65.628,32.381 Z M51.329,38.995 C50.632,38.993 50.065,38.427 50.065,37.728 C50.065,37.031 50.631,36.458 51.33,36.458 C52.031,36.457 52.599,37.031 52.6,37.727 C52.6,38.426 52.031,38.994 51.329,38.995 L51.329,38.995 Z M65.102,38.992 C64.403,38.993 63.833,38.426 63.834,37.724 C63.836,37.03 64.402,36.456 65.103,36.454 C65.798,36.456 66.369,37.029 66.368,37.725 C66.37,38.425 65.801,38.992 65.102,38.992 L65.102,38.992 Z M43.21,45.643 L43.215,67.435 C43.213,69.417 44.816,71.017 46.798,71.018 L49.237,71.019 L49.24,78.459 C49.24,80.311 50.746,81.817 52.596,81.817 C54.451,81.817 55.954,80.31 55.955,78.457 L55.953,71.018 L60.487,71.017 L60.488,78.457 C60.488,80.308 61.995,81.817 63.845,81.814 C65.701,81.815 67.205,80.308 67.204,78.454 L67.202,71.016 L69.65,71.014 C71.627,71.015 73.235,69.412 73.235,67.43 L73.231,45.638 L43.21,45.643 L43.21,45.643 Z M81.242,48.361 C81.242,46.507 79.739,45.004 77.884,45.004 C76.03,45.003 74.527,46.508 74.527,48.363 L74.53,62.425 C74.53,64.282 76.032,65.782 77.888,65.783 C79.742,65.782 81.244,64.282 81.244,62.424 L81.242,48.361 L81.242,48.361 Z" id="Fill-6" fill="#15384C" sketch:type="MSShapeGroup"></path>
            </g>
        </g>
    </g>
</svg>