<?xml version="1.0" encoding="UTF-8" standalone="no"?>
<svg width="126px" height="78px" viewBox="0 0 126 78" version="1.1" xmlns="http://www.w3.org/2000/svg" xmlns:xlink="http://www.w3.org/1999/xlink" xmlns:sketch="http://www.bohemiancoding.com/sketch/ns">
    <!-- Generator: Sketch 3.3.2 (12043) - http://www.bohemiancoding.com/sketch -->
    <title>Artboard 30 Copy</title>
    <desc>Created with Sketch.</desc>
    <defs></defs>
    <g id="Page-1" stroke="none" stroke-width="1" fill="none" fill-rule="evenodd" sketch:type="MSPage">
        <g id="Artboard-30-Copy" sketch:type="MSArtboardGroup">
            <g id="Imported-Layers-Copy-2" sketch:type="MSLayerGroup">
                <path d="M96.125,71.658 L67.125,57.658 L0.125,57.658 L0.125,62.991 L24.792,76.991 L96.125,76.991 L85.078,71.658 L96.125,71.658" id="Fill-1" fill="#0074B4" sketch:type="MSShapeGroup"></path>
                <path d="M24.792,71.658 L0.125,57.658 L0.125,62.991 L24.792,76.991 L96.125,76.991 L96.125,71.658 L24.792,71.658" id="Fill-2" fill="#0095E7" sketch:type="MSShapeGroup"></path>
                <path d="M96.125,58.658 L67.125,44.658 L0.125,44.658 L0.125,49.991 L24.792,63.991 L96.125,63.991 L85.078,58.658 L96.125,58.658" id="Fill-1" fill="#0074B4" sketch:type="MSShapeGroup"></path>
                <path d="M24.792,58.658 L0.125,44.658 L0.125,49.991 L24.792,63.991 L96.125,63.991 L96.125,58.658 L24.792,58.658" id="Fill-2" fill="#0095E7" sketch:type="MSShapeGroup"></path>
                <path d="M28.42,36.203 L28.42,42.453 L87.459,41.369 L124.712,55.953 L124.42,50.869 L88.092,35.389 L28.42,36.203 L28.42,36.203 Z" id="Stroke-3" stroke="#A2B8DB" stroke-width="1.5" stroke-dasharray="3" sketch:type="MSShapeGroup"></path>
                <path d="M29.747,37.569 L28.42,36.869 L28.42,38.369 M28.42,40.703 L28.42,42.203 L29.725,42.943" id="Stroke-4" stroke="#A2B8DB" stroke-width="1.5" stroke-linejoin="bevel" sketch:type="MSShapeGroup"></path>
                <path d="M32.273,44.389 L53.087,56.203 L121.455,56.203" id="Stroke-5" stroke="#0095E7" stroke-width="1.5" stroke-linejoin="bevel" stroke-dasharray="2.93,2.93" sketch:type="MSShapeGroup"></path>
                <path d="M122.92,56.203 L124.42,56.203 L124.42,54.703 M124.42,52.369 L124.42,50.869 L122.92,50.855" id="Stroke-6" stroke="#0095E7" stroke-width="1.5" stroke-linejoin="bevel" sketch:type="MSShapeGroup"></path>
                <path d="M120.002,50.828 L53.709,50.203 L31.038,38.249" id="Stroke-7" stroke="#0095E7" stroke-width="1.5" stroke-linejoin="bevel" stroke-dasharray="2.918,2.918" sketch:type="MSShapeGroup"></path>
                <path d="M53.709,50.411 L53.709,56.703" id="Stroke-8" stroke="#0095E7" stroke-width="1.5" stroke-linejoin="bevel" stroke-dasharray="3" sketch:type="MSShapeGroup"></path>
                <path d="M67.125,26.533 L0.125,26.533 L0.125,31.866 L24.792,45.866 L96.125,45.866 L85.078,40.533 L96.125,40.533 L67.125,26.533 Z" id="Fill-9" fill="#0074B4" sketch:type="MSShapeGroup"></path>
                <path d="M24.792,40.533 L0.125,26.533 L0.125,31.866 L24.792,45.866 L96.125,45.866 L96.125,40.533 L24.792,40.533" id="Fill-10" fill="#0095E7" sketch:type="MSShapeGroup"></path>
                <path d="M96.125,28.408 L67.125,14.408 L0.125,14.408 L0.125,19.741 L24.792,33.741 L96.125,33.741 L85.078,28.408 L96.125,28.408" id="Fill-11" fill="#0074B4" sketch:type="MSShapeGroup"></path>
                <path d="M24.792,28.408 L0.125,14.408 L0.125,19.741 L24.792,33.741 L96.125,33.741 L96.125,28.408 L24.792,28.408" id="Fill-12" fill="#0095E7" sketch:type="MSShapeGroup"></path>
                <path d="M96.125,28.408 L67.125,14.408 L0.125,14.408 L0.125,19.741 L24.792,33.741 L96.125,33.741 L85.078,28.408 L96.125,28.408" id="Fill-11" fill="#0074B4" sketch:type="MSShapeGroup"></path>
                <path d="M24.792,28.408 L0.125,14.408 L0.125,19.741 L24.792,33.741 L96.125,33.741 L96.125,28.408 L24.792,28.408" id="Fill-12" fill="#0095E7" sketch:type="MSShapeGroup"></path>
                <g id="Fill-11-+-Fill-12" sketch:type="MSShapeGroup">
                    <path d="M96.125,14.408 L67.125,0.408 L0.125,0.408 L0.125,5.741 L24.792,19.741 L96.125,19.741 L85.078,14.408 L96.125,14.408" id="Fill-11" fill="#0074B4"></path>
                    <path d="M24.792,14.408 L0.125,0.408 L0.125,5.741 L24.792,19.741 L96.125,19.741 L96.125,14.408 L24.792,14.408" id="Fill-12" fill="#0095E7"></path>
                </g>
            </g>
        </g>
    </g>
</svg>