<?xml version="1.0" encoding="utf-8"?>
<!-- Generator: Adobe Illustrator 17.0.0, SVG Export Plug-In . SVG Version: 6.00 Build 0)  -->
<!DOCTYPE svg PUBLIC "-//W3C//DTD SVG 1.1//EN" "http://www.w3.org/Graphics/SVG/1.1/DTD/svg11.dtd">
<svg version="1.1" id="Layer_1" xmlns="http://www.w3.org/2000/svg" xmlns:xlink="http://www.w3.org/1999/xlink" x="0px" y="0px"
	 width="160px" height="110px" viewBox="0 0 160 110" enable-background="new 0 0 160 110" xml:space="preserve">
<path fill="none" d="M105.313,33.698v-3.777c0-3.647-2.984-6.63-6.63-6.63H61.79c-3.647,0-6.63,2.984-6.63,6.63v3.777H105.313z
	 M75.066,26.55c1.053,0,1.906,0.853,1.906,1.906c0,1.053-0.853,1.906-1.906,1.906c-1.053,0-1.906-0.853-1.906-1.906
	C73.16,27.403,74.013,26.55,75.066,26.55z M68.435,26.55c1.053,0,1.906,0.853,1.906,1.906c0,1.053-0.853,1.906-1.906,1.906
	s-1.906-0.853-1.906-1.906C66.529,27.403,67.383,26.55,68.435,26.55z M61.805,26.55c1.053,0,1.906,0.853,1.906,1.906
	c0,1.053-0.853,1.906-1.906,1.906c-1.053,0-1.906-0.853-1.906-1.906C59.899,27.403,60.752,26.55,61.805,26.55z"/>
<path fill="none" d="M70.03,36.35v49.868h28.653c3.647,0,6.63-2.984,6.63-6.63V36.35H70.03z M82.777,77.821h-0.632
	c-0.752,0-0.936,0.168-0.936,0.856c0,0.096,0.009,0.251,0.017,0.402c0.009,0.155,0.017,0.305,0.017,0.393
	c0,1.465-0.888,2.246-2.972,2.61l-0.299,0.052l-0.475-1.775l0.315-0.089c1.167-0.329,1.167-0.57,1.167-1.052
	c0-0.109-0.008-0.253-0.017-0.398c-0.009-0.163-0.018-0.328-0.018-0.455c0-0.688,0.251-1.199,0.764-1.546
	c-0.513-0.348-0.764-0.858-0.764-1.545c0-0.128,0.009-0.293,0.018-0.456c0.009-0.146,0.017-0.289,0.017-0.398
	c0-0.482,0-0.723-1.167-1.053l-0.315-0.089l0.475-1.773l0.299,0.052c2.084,0.365,2.972,1.145,2.972,2.61
	c0,0.087-0.008,0.237-0.017,0.392c-0.008,0.151-0.017,0.306-0.017,0.403c0,0.688,0.184,0.856,0.936,0.856h0.632V77.821z
	 M81.386,44.619c0.009,0.163,0.018,0.328,0.018,0.456c0,0.686-0.251,1.197-0.764,1.545c0.513,0.347,0.764,0.858,0.764,1.545
	c0,0.128-0.009,0.293-0.018,0.456c-0.009,0.146-0.017,0.289-0.017,0.398c0,0.482,0,0.723,1.167,1.052l0.315,0.089l-0.475,1.775
	l-0.299-0.052c-2.084-0.365-2.973-1.145-2.973-2.61c0-0.088,0.008-0.239,0.017-0.394c0.009-0.15,0.018-0.305,0.018-0.401
	c0-0.688-0.184-0.857-0.936-0.857H77.57V45.62h0.632c0.752,0,0.936-0.168,0.936-0.856c0-0.096-0.009-0.252-0.018-0.402
	c-0.009-0.155-0.017-0.306-0.017-0.394c0-1.465,0.89-2.245,2.973-2.609l0.299-0.052l0.475,1.773l-0.315,0.089
	c-1.167,0.33-1.167,0.572-1.167,1.053C81.369,44.33,81.377,44.474,81.386,44.619z M98.76,69.311H85.682
	c-0.733,0-1.326-0.594-1.326-1.326c0-0.732,0.593-1.326,1.326-1.326H98.76c0.733,0,1.326,0.594,1.326,1.326
	C100.086,68.718,99.493,69.311,98.76,69.311z M98.76,63.564H85.682c-0.733,0-1.326-0.594-1.326-1.326s0.593-1.326,1.326-1.326H98.76
	c0.733,0,1.326,0.594,1.326,1.326S99.493,63.564,98.76,63.564z M98.76,58.281H85.682c-0.733,0-1.326-0.594-1.326-1.326
	c0-0.732,0.593-1.326,1.326-1.326H98.76c0.733,0,1.326,0.594,1.326,1.326C100.086,57.688,99.493,58.281,98.76,58.281z"/>
<g>
	<path fill="#888888" d="M85.682,69.311H98.76c0.733,0,1.326-0.594,1.326-1.326c0-0.732-0.593-1.326-1.326-1.326H85.682
		c-0.733,0-1.326,0.594-1.326,1.326C84.356,68.718,84.949,69.311,85.682,69.311z"/>
	<path fill="#888888" d="M85.682,63.564H98.76c0.733,0,1.326-0.594,1.326-1.326s-0.593-1.326-1.326-1.326H85.682
		c-0.733,0-1.326,0.594-1.326,1.326S84.949,63.564,85.682,63.564z"/>
	<path fill="#888888" d="M85.682,58.281H98.76c0.733,0,1.326-0.594,1.326-1.326c0-0.732-0.593-1.326-1.326-1.326H85.682
		c-0.733,0-1.326,0.594-1.326,1.326C84.356,57.688,84.949,58.281,85.682,58.281z"/>
	<path fill="#888888" d="M79.138,48.477c0,0.096-0.009,0.251-0.018,0.401c-0.009,0.155-0.017,0.306-0.017,0.394
		c0,1.465,0.89,2.246,2.973,2.61l0.299,0.052l0.475-1.775l-0.315-0.089c-1.167-0.329-1.167-0.57-1.167-1.052
		c0-0.109,0.008-0.253,0.017-0.398c0.009-0.163,0.018-0.328,0.018-0.456c0-0.687-0.251-1.198-0.764-1.545
		c0.513-0.348,0.764-0.859,0.764-1.545c0-0.128-0.009-0.293-0.018-0.456c-0.009-0.146-0.017-0.289-0.017-0.398
		c0-0.482,0-0.723,1.167-1.053l0.315-0.089l-0.475-1.773l-0.299,0.052c-2.084,0.365-2.973,1.145-2.973,2.609
		c0,0.088,0.008,0.238,0.017,0.394c0.009,0.15,0.018,0.306,0.018,0.402c0,0.688-0.184,0.856-0.936,0.856H77.57v2.001h0.632
		C78.954,47.62,79.138,47.789,79.138,48.477z"/>
	<path fill="#888888" d="M77.811,80.272l-0.315,0.089l0.475,1.775l0.299-0.052c2.084-0.365,2.972-1.145,2.972-2.61
		c0-0.088-0.008-0.238-0.017-0.393c-0.008-0.151-0.017-0.306-0.017-0.402c0-0.688,0.184-0.856,0.936-0.856h0.632V75.82h-0.632
		c-0.752,0-0.936-0.168-0.936-0.856c0-0.097,0.009-0.253,0.017-0.403c0.009-0.155,0.017-0.304,0.017-0.392
		c0-1.465-0.888-2.246-2.972-2.61l-0.299-0.052l-0.475,1.773l0.315,0.089c1.167,0.33,1.167,0.572,1.167,1.053
		c0,0.108-0.008,0.252-0.017,0.398c-0.009,0.163-0.018,0.328-0.018,0.456c0,0.687,0.251,1.197,0.764,1.545
		c-0.513,0.347-0.764,0.858-0.764,1.546c0,0.128,0.009,0.292,0.018,0.455c0.009,0.145,0.017,0.289,0.017,0.398
		C78.978,79.701,78.978,79.943,77.811,80.272z"/>
	<path fill="#888888" d="M98.683,20.639H61.79c-5.118,0-9.282,4.164-9.282,9.282v49.666c0,5.118,4.164,9.282,9.282,9.282h36.893
		c5.118,0,9.282-4.164,9.282-9.282V29.921C107.966,24.803,103.801,20.639,98.683,20.639z M105.313,79.587
		c0,3.647-2.984,6.63-6.63,6.63H70.03V36.35h35.284V79.587z M105.313,33.698H55.16v-3.777c0-3.647,2.984-6.63,6.63-6.63h36.893
		c3.647,0,6.63,2.984,6.63,6.63V33.698z"/>
	<circle fill="#888888" cx="61.805" cy="28.456" r="1.906"/>
	<circle fill="#888888" cx="68.435" cy="28.456" r="1.906"/>
	<circle fill="#888888" cx="75.066" cy="28.456" r="1.906"/>
</g>
</svg>
