<?xml version="1.0" encoding="UTF-8" standalone="no"?>
<svg width="96px" height="100px" viewBox="0 0 96 100" version="1.1" xmlns="http://www.w3.org/2000/svg" xmlns:xlink="http://www.w3.org/1999/xlink" xmlns:sketch="http://www.bohemiancoding.com/sketch/ns">
    <!-- Generator: Sketch 3.3.2 (12043) - http://www.bohemiancoding.com/sketch -->
    <title>Artboard 30</title>
    <desc>Created with Sketch.</desc>
    <defs></defs>
    <g id="Page-1" stroke="none" stroke-width="1" fill="none" fill-rule="evenodd" sketch:type="MSPage">
        <g id="Artboard-30" sketch:type="MSArtboardGroup" fill="#0095E7">
            <g id="Imported-Layers-Copy" sketch:type="MSLayerGroup" transform="translate(1.000000, 1.000000)">
                <path d="M25.7140339,98.4579344 L27.9822373,98.4579344 L27.9822373,92.530918 L26.0378305,92.530918 C20.4779661,92.530918 17.9559322,89.6810164 17.5784407,84.5411311 L10.863322,89.5073607 C12.8972203,95.9894262 18.5807458,98.4579344 25.7140339,98.4579344" id="Fill-1" sketch:type="MSShapeGroup"></path>
                <path d="M85.9857627,53.4562295 C81.1239322,54.6426066 78.0974915,58.3072295 78.2065085,65.2047705 C78.2065085,68.1147213 78.5303051,72.8088197 78.9614915,75.3958033 C79.3943051,78.0899016 79.7181017,80.5681475 79.7181017,83.1551311 C79.7181017,89.1908852 77.2334915,92.530918 71.1822373,92.530918 L69.2378305,92.530918 L69.2378305,98.4579344 L71.5060339,98.4579344 C80.4747119,98.4579344 87.1735593,94.579082 87.1735593,83.6939508 C87.1735593,80.784 86.7423729,77.7653115 86.3095593,74.8553607 C85.8767458,71.9470328 85.4455593,67.037082 85.4455593,64.1271311 C85.4455593,60.7854754 86.5259661,56.1519508 94.1978305,56.1519508 L94.1978305,50.6550164 C86.5259661,50.6550164 85.4455593,46.4515738 85.4455593,42.6798361 C85.4455593,39.6611475 85.8767458,38.644082 86.3095593,35.6270164 C86.4120678,34.9064262 86.5145763,34.1939508 86.6122034,33.4830984 L78.4115254,39.5480656 C78.2846102,40.8561639 78.2065085,42.1902295 78.2065085,43.6021967 C78.0974915,50.4997377 81.1239322,51.9485082 85.9857627,53.242 L85.9857627,53.4562295 Z" id="Fill-2" sketch:type="MSShapeGroup"></path>
                <path d="M16.0017622,63.0000007 C16.1107792,56.1024597 13.084339,54.3487541 8.22250847,53.164 C8.22250847,53.164 16.1107797,49.2058852 16.0017627,42.3083443 C16.0017627,39.3983934 15.6779661,25.8114098 15.2451525,23.1173115 C14.8139661,20.5303279 14.4885424,17.9449672 14.4885424,15.4650984 C14.4885424,9.64519672 16.6509831,6.19642623 23.0260339,6.19642623 L24.9704407,6.19642623 L24.9704407,0.269409836 L22.7006102,0.269409836 C13.5171525,0.269409836 7.03308475,4.47285246 7.03308475,14.387459 C7.03308475,17.4061475 7.46589831,20.3160984 7.89871186,23.3331639 C8.32989831,26.3502295 8.76271186,40.368918 8.76271186,43.3859836 C8.76271186,47.1577213 7.68230508,50.3611639 0.010440678,50.3611639 L0.010440678,55.8580984 C7.68230508,55.8580984 8.76271186,60.491623 8.76271186,63.8332787 C8.76271186,66.7432295 7.03308475,68.7491456 7.03308475,71.4000984 C7.03308475,73.5440164 7.30155932,75.4071639 7.7880678,77.0317377 L14.5536271,72.0281803 C14.5308475,71.6402951 16.0017622,67.4122302 16.0017622,67.0000007 L16.0017622,63.0000007 Z" id="Fill-3" sketch:type="MSShapeGroup"></path>
                <path d="M68.4942373,0.269409836 L66.2260339,0.269409836 L66.2260339,6.19642623 L68.1704407,6.19642623 C74.5454915,6.19642623 76.7063051,9.64519672 76.7063051,15.4650984 C76.7063051,17.9449672 76.3825085,20.5303279 75.9496949,23.1173115 C75.7397966,24.4221639 75.5575593,25.7042951 75.4241356,27.0075246 L83.6329492,20.9360656 C83.9274576,18.7548197 84.1617627,16.599541 84.1617627,14.387459 C84.1617627,4.47285246 77.6776949,0.269409836 68.4942373,0.269409836" id="Fill-4" sketch:type="MSShapeGroup"></path>
                <path d="M6.88013559,87.9330984 L3.99362712,84.0055574 L14.4917966,76.329 L17.3783051,80.256541 L6.88013559,87.9330984" id="Fill-5" sketch:type="MSShapeGroup"></path>
                <path d="M78.4001356,35.4468689 L75.5136271,31.5193279 L86.0134237,23.8427705 L88.8983051,27.7703115 L78.4001356,35.4468689" id="Fill-6" sketch:type="MSShapeGroup"></path>
                <path d="M46.1132203,57.2301148 L57.4216949,78.7439508 C57.4216949,78.7439508 60.5864407,73.5456393 56.4893559,66.2017869 C54.8736271,63.3031967 51.9383051,58.0415902 48.9769492,52.7312951 L57.1044068,39.9651639 C57.120678,39.9651639 57.1385763,39.9684098 57.1548475,39.9684098 C60.8337627,40.1209672 65.0545085,36.5147705 66.460339,33.8612459 C67.3845424,32.1198197 67.5732881,30.1252131 66.9907797,28.2425902 C66.4082712,26.3599672 65.1277288,24.816541 63.3818305,23.8963279 C62.3990508,23.3769836 61.3414237,23.0913443 60.2366102,23.0459016 C57.4021695,22.9290492 54.7157966,24.4676066 53.391322,26.9669508 C52.4850169,28.675918 52.0050169,31.1801311 52.1351864,33.5041967 C52.2376949,35.308918 52.6900339,36.8085246 53.4482712,37.9088852 C52.239322,39.7071148 49.5301695,43.7385246 46.4858305,48.2665574 C43.8385085,43.5178033 41.4808136,39.2916393 40.4199322,37.389541 C41.2741695,36.3540984 41.856678,34.8901967 42.1088814,33.0887213 C42.432678,30.7841311 42.1609492,28.249082 41.4010847,26.4719508 C40.2881356,23.8719836 37.7384407,22.1159508 34.904,21.9990984 C33.7991864,21.9520328 32.7204068,22.1500328 31.6985763,22.5849836 C27.9496949,24.1819672 26.2021695,28.5233607 27.8032542,32.2626393 C28.9845424,35.0232787 32.8912542,38.9654262 36.5701695,39.1179836 L36.5945763,39.1179836 L43.6334915,52.5105738 C40.2409492,57.5579508 36.879322,62.5598852 35.0292881,65.3140328 C30.3383051,72.2943443 33.0588475,77.7377213 33.0588475,77.7377213 L46.1132203,57.2301148 L46.1132203,57.2301148 Z M54.9777627,33.3435246 C54.8768814,31.5631475 55.2511186,29.5328361 55.9084746,28.2945246 C56.7220339,26.7575902 58.3751864,25.8097869 60.1194576,25.8828197 C60.796339,25.9104098 61.4471864,26.0856885 62.0524746,26.4054098 C63.1247458,26.9718197 63.9138983,27.9212459 64.2718644,29.0784098 C64.6298305,30.2355738 64.512678,31.4625246 63.9448136,32.5352951 C62.8302373,34.6370164 59.4653559,37.222377 57.272,37.1331148 C56.9677288,37.1201311 56.6976271,37.0535902 56.4698305,36.9334918 C55.6367458,36.4936721 55.0786441,35.1514918 54.9777627,33.3435246 L54.9777627,33.3435246 Z M30.4212881,31.1476721 C29.4352542,28.8479508 30.5107797,26.1781967 32.8164068,25.1963115 C33.4461017,24.9285246 34.108339,24.8068033 34.7868475,24.8343934 C36.5311186,24.9074262 38.099661,25.9883115 38.7830508,27.586918 C39.3346441,28.875541 39.5380339,30.9285738 39.2907119,32.6959672 C39.0385085,34.4893279 38.3713898,35.7795738 37.5041356,36.1496066 C37.2682034,36.2502295 36.9932203,36.2940492 36.6889492,36.2810656 C34.4955932,36.1901803 31.3552542,33.3354098 30.4212881,31.1476721 L30.4212881,31.1476721 Z M44.3998644,52.0350492 C44.4421695,51.019082 45.3029153,50.2287049 46.3214915,50.2709016 C47.3400678,50.3130984 48.1324746,51.1716393 48.0901695,52.1876066 C48.0478644,53.2035738 47.1871186,53.9939508 46.1685424,53.9517541 C45.1499661,53.9095574 44.3575593,53.0510164 44.3998644,52.0350492 L44.3998644,52.0350492 Z" id="Fill-7" sketch:type="MSShapeGroup"></path>
            </g>
        </g>
    </g>
</svg>