<?xml version="1.0" encoding="UTF-8" standalone="no"?>
<svg width="114px" height="115px" viewBox="0 0 114 115" version="1.1" xmlns="http://www.w3.org/2000/svg" xmlns:xlink="http://www.w3.org/1999/xlink" xmlns:sketch="http://www.bohemiancoding.com/sketch/ns">
    <!-- Generator: Sketch 3.3.2 (12043) - http://www.bohemiancoding.com/sketch -->
    <title>Imported Layers Copy 6</title>
    <desc>Created with Sketch.</desc>
    <defs></defs>
    <g id="Page-1" stroke="none" stroke-width="1" fill="none" fill-rule="evenodd" sketch:type="MSPage">
        <g id="Artboard-25" sketch:type="MSArtboardGroup" transform="translate(-1113.000000, -140.000000)">
            <g id="Imported-Layers-Copy-6" sketch:type="MSLayerGroup" transform="translate(1113.000000, 140.000000)">
                <path d="M113.911,57.756 C113.911,89.18 88.436,114.654 57.013,114.654 C25.589,114.654 0.114,89.18 0.114,57.756 C0.114,26.332 25.589,0.858 57.013,0.858 C88.436,0.858 113.911,26.332 113.911,57.756" id="Fill-1" fill="#D6DEEE" sketch:type="MSShapeGroup"></path>
                <path d="M62.802,40.536 C65.545,37.212 64.974,33.76 64.974,33.76 C64.974,33.76 61.136,33.778 58.375,37.449 C55.92,40.714 56.545,43.506 56.545,43.506 C56.545,43.506 59.874,44.087 62.802,40.536" id="Fill-2" fill="#15384C" sketch:type="MSShapeGroup"></path>
                <path d="M50.522,76.15 C52.226,76.15 54.841,74.419 57.477,74.419 C60.064,74.419 61.973,76.088 64.428,76.088 C69.773,76.088 73.73,64.852 73.73,64.852 C73.73,64.852 68.069,62.641 68.069,56.225 C68.069,50.537 72.613,48.193 72.613,48.193 C72.613,48.193 70.29,43.954 64.384,43.954 C60.953,43.954 58.316,45.923 56.896,45.923 C55.241,45.923 52.772,44.072 49.59,44.072 C44.694,44.072 39.475,48.494 39.475,56.924 C39.475,65.492 45.641,76.15 50.522,76.15" id="Fill-3" fill="#15384C" sketch:type="MSShapeGroup"></path>
            </g>
        </g>
    </g>
</svg>