<?xml version="1.0" encoding="utf-8"?>
<!-- Generator: Adobe Illustrator 17.0.0, SVG Export Plug-In . SVG Version: 6.00 Build 0)  -->
<!DOCTYPE svg PUBLIC "-//W3C//DTD SVG 1.1//EN" "http://www.w3.org/Graphics/SVG/1.1/DTD/svg11.dtd">
<svg version="1.1" id="Layer_1" xmlns="http://www.w3.org/2000/svg" xmlns:xlink="http://www.w3.org/1999/xlink" x="0px" y="0px"
	 width="160px" height="110px" viewBox="0 0 160 110" enable-background="new 0 0 160 110" xml:space="preserve">
<g>
	<path fill="#888888" d="M94.513,96.983h-28.24c-5.183,0-9.399-4.216-9.399-9.399V23.426c0-5.183,4.216-9.399,9.399-9.399h28.24
		c5.183,0,9.399,4.216,9.399,9.399v64.158C103.912,92.767,99.696,96.983,94.513,96.983z M66.273,17.16
		c-3.455,0-6.266,2.811-6.266,6.266v64.158c0,3.455,2.811,6.266,6.266,6.266h28.24c3.455,0,6.266-2.811,6.266-6.266V23.426
		c0-3.455-2.811-6.266-6.266-6.266H66.273z"/>
	<circle fill="#888888" cx="80.393" cy="88.174" r="3.675"/>
	<g>
		<path fill="#888888" d="M84.967,23.872H75.82c-0.865,0-1.567-0.701-1.567-1.567c0-0.865,0.701-1.567,1.567-1.567h9.147
			c0.865,0,1.567,0.701,1.567,1.567C86.533,23.171,85.832,23.872,84.967,23.872z"/>
	</g>
	<rect x="63.735" y="28.016" fill="#888888" width="33.316" height="53.736"/>
</g>
</svg>
