<?xml version="1.0" encoding="UTF-8" standalone="no"?>
<svg width="114px" height="115px" viewBox="0 0 114 115" version="1.1" xmlns="http://www.w3.org/2000/svg" xmlns:xlink="http://www.w3.org/1999/xlink" xmlns:sketch="http://www.bohemiancoding.com/sketch/ns">
    <!-- Generator: Sketch 3.3.2 (12043) - http://www.bohemiancoding.com/sketch -->
    <title>Imported Layers Copy 4</title>
    <desc>Created with Sketch.</desc>
    <defs></defs>
    <g id="Page-1" stroke="none" stroke-width="1" fill="none" fill-rule="evenodd" sketch:type="MSPage">
        <g id="Artboard-25" sketch:type="MSArtboardGroup" transform="translate(-631.000000, -140.000000)">
            <g id="Imported-Layers-Copy-4" sketch:type="MSLayerGroup" transform="translate(631.000000, 140.000000)">
                <path d="M113.872,57.756 C113.872,89.18 88.398,114.654 56.974,114.654 C25.55,114.654 0.076,89.18 0.076,57.756 C0.076,26.332 25.55,0.858 56.974,0.858 C88.398,0.858 113.872,26.332 113.872,57.756" id="Fill-1" fill="#D6DEEE" sketch:type="MSShapeGroup"></path>
                <path d="M29.933,57.153 L44.888,42.2 C45.635,41.452 45.635,40.236 44.888,39.489 C44.165,38.765 42.9,38.766 42.176,39.488 L25.868,55.798 C25.506,56.159 25.306,56.641 25.306,57.153 C25.306,57.666 25.506,58.148 25.867,58.509 L42.666,75.307 C43.027,75.67 43.509,75.87 44.022,75.87 C44.536,75.87 45.018,75.67 45.377,75.309 C45.739,74.947 45.939,74.466 45.939,73.953 C45.939,73.44 45.739,72.959 45.378,72.598 L29.933,57.153" id="Fill-2" fill="#15384C" sketch:type="MSShapeGroup"></path>
                <path d="M88.081,55.798 L71.771,39.489 C71.049,38.765 69.783,38.766 69.06,39.488 C68.699,39.851 68.499,40.332 68.499,40.844 C68.499,41.356 68.699,41.838 69.06,42.2 L84.015,57.153 L68.569,72.598 C68.208,72.96 68.009,73.441 68.009,73.953 C68.009,74.465 68.208,74.946 68.569,75.309 C68.933,75.671 69.414,75.87 69.926,75.87 C70.438,75.87 70.921,75.67 71.281,75.309 L88.08,58.509 C88.442,58.148 88.643,57.666 88.643,57.153 C88.643,56.641 88.442,56.159 88.081,55.798" id="Fill-3" fill="#15384C" sketch:type="MSShapeGroup"></path>
                <path d="M62.267,36.411 C61.258,36.158 60.193,36.798 59.941,37.802 L50.289,76.059 C50.031,77.084 50.654,78.128 51.681,78.387 C51.833,78.425 51.99,78.444 52.148,78.444 C53.027,78.444 53.792,77.849 54.007,76.996 L63.659,38.739 C63.917,37.714 63.293,36.67 62.267,36.411" id="Fill-4" fill="#1969A0" sketch:type="MSShapeGroup"></path>
            </g>
        </g>
    </g>
</svg>