<?xml version="1.0" encoding="utf-8"?>
<!-- Generator: Adobe Illustrator 17.0.0, SVG Export Plug-In . SVG Version: 6.00 Build 0)  -->
<!DOCTYPE svg PUBLIC "-//W3C//DTD SVG 1.1//EN" "http://www.w3.org/Graphics/SVG/1.1/DTD/svg11.dtd">
<svg version="1.1" id="Layer_1" xmlns="http://www.w3.org/2000/svg" xmlns:xlink="http://www.w3.org/1999/xlink" x="0px" y="0px"
	 width="244px" height="30px" viewBox="0 0 244 30" enable-background="new 0 0 244 30" xml:space="preserve">
<path fill="#1964AF" d="M23.914,14.017l0.285-2.85c-0.054-1.309-0.365-2.49-0.925-3.576l-1.497,2.071
	c0.207,0.689,0.29,1.434,0.228,2.211c-0.285,3.561-3.52,6.447-7.226,6.447c-0.87,0-1.689-0.159-2.429-0.449l8.948-9.348l3.778-3.833
	l-2.691,1.422c-1.785-2.247-4.653-3.581-7.942-3.449C8.785,2.891,3.978,7.494,3.706,12.946s4.093,9.688,9.751,9.462
	C18.447,22.209,22.775,18.605,23.914,14.017z M34.077,16.27c0.153-1.529,0.026-2.638-0.38-3.328
	c-0.397-0.689-1.095-1.034-2.092-1.034c-0.438,0-0.883,0.07-1.335,0.209c-0.443,0.14-0.888,0.35-1.335,0.629l-0.79,7.9
	c0.249,0.112,0.526,0.191,0.829,0.238c0.312,0.046,0.683,0.07,1.112,0.07c1.193,0,2.117-0.387,2.773-1.16
	C33.514,19.01,33.92,17.836,34.077,16.27z M45.117,24.547c-1.995,0-3.408-0.409-4.239-1.23c-0.822-0.82-1.14-2.162-0.954-4.027
	l0.734-7.34H38.87c0.311,1.183,0.384,2.591,0.221,4.222c-0.25,2.508-1.091,4.53-2.521,6.068c-1.422,1.538-3.065,2.307-4.928,2.307
	c-0.783,0-1.455-0.089-2.015-0.265c-0.56-0.177-1.148-0.452-1.763-0.825L27.209,30h-4.893l0.886-8.865
	c-2.613,3.499-6.748,5.8-11.229,5.8c-7.17,0-12.511-5.889-11.93-13.153C0.625,6.518,6.908,0.629,14.078,0.629
	c3.635,0,6.799,1.513,8.961,3.952l4.124-1.579l-2.437,4.062c0.24,0.473,0.45,0.966,0.628,1.475h4.001l-0.163,1.636
	c0.779-0.615,1.56-1.114,2.345-1.496c0.784-0.382,1.665-0.573,2.644-0.573c0.813,0,1.529,0.145,2.149,0.433H41l0.449-4.488h4.894
	l-0.449,4.488h4.712l-0.341,3.411h-4.712l-0.557,5.565c-0.055,0.55-0.099,1.03-0.13,1.44c-0.032,0.41,0.006,0.779,0.113,1.105
	c0.098,0.326,0.3,0.587,0.607,0.783c0.317,0.187,0.792,0.28,1.426,0.28c0.261,0,0.606-0.056,1.037-0.168
	c0.44-0.112,0.748-0.214,0.926-0.308h0.42L49.049,24.1c-0.545,0.14-1.12,0.247-1.724,0.322
	C46.719,24.505,45.984,24.547,45.117,24.547z M8.583,11.873c0.285-3.561,3.52-6.448,7.227-6.448c1.858,0,3.482,0.726,4.604,1.899
	L9.423,15.45C8.793,14.426,8.477,13.196,8.583,11.873z M54.996,24.239h-4.893l1.57-15.701h4.893L54.996,24.239z M56.93,6.301h-5.173
	l0.382-3.817h5.173L56.93,6.301z M74.881,24.239l0.785-7.844c0.077-0.773,0.129-1.425,0.154-1.957
	c0.025-0.531-0.015-0.965-0.122-1.3c-0.106-0.335-0.301-0.578-0.584-0.727c-0.274-0.158-0.675-0.237-1.206-0.238
	c-0.373,0-0.749,0.084-1.13,0.252c-0.379,0.159-0.799,0.387-1.257,0.685l-1.113,11.129h-4.921l0.785-7.844
	c0.076-0.764,0.122-1.412,0.138-1.943c0.026-0.541-0.014-0.979-0.12-1.314s-0.301-0.578-0.585-0.727
	c-0.273-0.158-0.671-0.237-1.192-0.238c-0.401,0-0.802,0.094-1.202,0.28c-0.401,0.187-0.796,0.406-1.184,0.657l-1.113,11.129h-4.893
	l1.57-15.701h4.894l-0.174,1.733c0.869-0.68,1.678-1.212,2.424-1.594c0.747-0.382,1.563-0.573,2.448-0.573
	c0.96,0,1.78,0.228,2.462,0.685c0.681,0.457,1.168,1.137,1.46,2.041c1.029-0.876,1.982-1.547,2.858-2.013
	c0.886-0.476,1.758-0.713,2.616-0.713c0.727,0,1.368,0.117,1.922,0.349c0.554,0.234,1.009,0.583,1.363,1.049
	c0.387,0.504,0.654,1.105,0.798,1.804c0.155,0.69,0.176,1.594,0.064,2.712l-1.022,10.22h-4.923V24.239z M87.626,6.301h-5.173
	l0.382-3.817h5.173L87.626,6.301z M100.33,20.493c-0.578-1.212-0.78-2.69-0.606-4.436c0.256-2.563,1.197-4.609,2.823-6.138
	c1.625-1.528,3.762-2.293,6.409-2.293c2.405,0,4.148,0.648,5.23,1.944s1.502,3.151,1.261,5.564l-0.176,1.762h-10.724
	c-0.026,0.727,0.066,1.338,0.278,1.831c0.212,0.485,0.519,0.872,0.919,1.16c0.391,0.289,0.859,0.499,1.405,0.629
	c0.547,0.122,1.151,0.182,1.813,0.182c0.568,0,1.134-0.06,1.696-0.182c0.563-0.13,1.083-0.298,1.561-0.503
	c0.418-0.177,0.805-0.368,1.162-0.573c0.365-0.205,0.663-0.387,0.893-0.545h0.517l-0.404,4.041c-0.417,0.159-0.8,0.308-1.149,0.447
	c-0.339,0.131-0.805,0.266-1.397,0.406c-0.545,0.14-1.106,0.247-1.682,0.321c-0.425,0.063-0.92,0.102-1.482,0.118L85.692,24.24
	h-0.504h-4.39l1.57-15.701h4.893l-1.188,11.88l7.811-8.203l-5.829,0.021l0.423-3.6l11.855-0.098l-0.317,3.173l-8.386,8.781
	C91.63,20.493,100.33,20.493,100.33,20.493z M110.743,13.945c0.075-1.034-0.088-1.822-0.491-2.363
	c-0.393-0.541-1.056-0.811-1.988-0.811c-0.951,0-1.725,0.285-2.322,0.853c-0.588,0.569-0.959,1.342-1.113,2.321H110.743z
	 M137.133,8.115l-10.074,21.462h-5.257l2.991-6.138l-3.335-12.086l-1.246,12.464h-4.894l2.176-21.755h4.893l-0.606,6.054h3.928
	l2.315,9.843l4.074-9.843L137.133,8.115L137.133,8.115z"/>
<g enable-background="new    ">
	<path fill="#313131" d="M152.17,15.191h3.393c2.86,0,4.837,1.963,4.837,4.524v0.026c0,2.561-1.977,4.55-4.837,4.55h-3.393V15.191z
		 M153.769,16.647v6.188h1.794c1.911,0,3.159-1.287,3.159-3.068v-0.025c0-1.781-1.248-3.095-3.159-3.095H153.769z"/>
	<path fill="#313131" d="M162.336,15.191h6.747v1.431h-5.148v2.365h4.563v1.431h-4.563v2.444h5.214v1.43h-6.812V15.191z"/>
	<path fill="#313131" d="M170.266,15.191h1.769l2.743,6.994l2.729-6.994h1.729l-3.771,9.166h-1.417L170.266,15.191z"/>
	<path fill="#313131" d="M180.796,15.191h6.747v1.431h-5.148v2.365h4.563v1.431h-4.563v2.444h5.214v1.43h-6.812V15.191z"/>
	<path fill="#313131" d="M189.506,15.191h1.599v7.645h4.784v1.456h-6.383V15.191z"/>
	<path fill="#313131" d="M196.63,19.768v-0.025c0-2.562,1.976-4.706,4.771-4.706c2.796,0,4.745,2.118,4.745,4.68v0.026
		c0,2.561-1.976,4.706-4.771,4.706S196.63,22.329,196.63,19.768z M204.469,19.768v-0.025c0-1.769-1.287-3.237-3.094-3.237
		c-1.808,0-3.068,1.443-3.068,3.211v0.026c0,1.768,1.287,3.224,3.094,3.224C203.208,22.966,204.469,21.536,204.469,19.768z"/>
	<path fill="#313131" d="M208.082,15.191h3.589c2.132,0,3.458,1.209,3.458,3.042v0.026c0,2.041-1.639,3.107-3.641,3.107h-1.807
		v2.925h-1.6V15.191z M211.541,19.924c1.209,0,1.963-0.676,1.963-1.625v-0.026c0-1.065-0.768-1.625-1.963-1.625h-1.859v3.276
		H211.541z"/>
	<path fill="#313131" d="M216.767,15.191h6.747v1.431h-5.148v2.365h4.563v1.431h-4.563v2.444h5.214v1.43h-6.812V15.191z"/>
	<path fill="#313131" d="M225.477,15.191h4.056c1.145,0,2.041,0.338,2.627,0.91c0.48,0.494,0.754,1.17,0.754,1.963v0.026
		c0,1.495-0.897,2.392-2.158,2.756l2.457,3.445h-1.898l-2.236-3.172h-2.002v3.172h-1.599V15.191z M229.416,19.703
		c1.144,0,1.872-0.599,1.872-1.521v-0.026c0-0.975-0.702-1.508-1.886-1.508h-2.327v3.056H229.416z"/>
	<path fill="#313131" d="M234.265,22.966l0.962-1.144c0.871,0.754,1.755,1.183,2.873,1.183c0.988,0,1.612-0.468,1.612-1.144v-0.026
		c0-0.65-0.364-1.001-2.055-1.391c-1.937-0.469-3.029-1.041-3.029-2.718v-0.025c0-1.561,1.301-2.64,3.107-2.64
		c1.326,0,2.379,0.403,3.303,1.145l-0.858,1.209c-0.819-0.611-1.638-0.937-2.47-0.937c-0.937,0-1.482,0.481-1.482,1.079v0.026
		c0,0.702,0.416,1.014,2.171,1.43c1.924,0.468,2.912,1.157,2.912,2.665v0.026c0,1.703-1.339,2.717-3.25,2.717
		C236.67,24.422,235.356,23.941,234.265,22.966z"/>
</g>
</svg>
