<?xml version="1.0" encoding="utf-8"?>
<!-- Generator: Adobe Illustrator 17.0.0, SVG Export Plug-In . SVG Version: 6.00 Build 0)  -->
<!DOCTYPE svg PUBLIC "-//W3C//DTD SVG 1.1//EN" "http://www.w3.org/Graphics/SVG/1.1/DTD/svg11.dtd">
<svg version="1.1" id="Layer_1" xmlns="http://www.w3.org/2000/svg" xmlns:xlink="http://www.w3.org/1999/xlink" x="0px" y="0px"
	 width="188px" height="40px" viewBox="0 0 188 40" enable-background="new 0 0 188 40" xml:space="preserve">
<path fill="#707070" d="M32.733,18.123l0.39-3.901c-0.074-1.792-0.5-3.409-1.266-4.895l-2.049,2.834
	c0.283,0.944,0.397,1.963,0.312,3.027c-0.39,4.874-4.818,8.825-9.891,8.825c-1.191,0-2.312-0.218-3.324-0.614l12.248-12.795
	l5.172-5.246L30.64,7.306c-2.443-3.075-6.369-4.901-10.871-4.721c-7.744,0.31-14.324,6.61-14.696,14.073
	C4.701,24.12,10.676,29.918,18.42,29.609C25.25,29.336,31.174,24.402,32.733,18.123z M46.644,21.207
	c0.21-2.092,0.036-3.611-0.52-4.555c-0.543-0.943-1.498-1.415-2.863-1.416c-0.6,0-1.209,0.096-1.827,0.287
	c-0.606,0.191-1.215,0.478-1.828,0.861l-1.081,10.813c0.341,0.153,0.719,0.262,1.135,0.326c0.427,0.064,0.934,0.095,1.522,0.095
	c1.633,0,2.898-0.529,3.795-1.588C45.873,24.958,46.429,23.35,46.644,21.207z M61.756,32.536c-2.731,0-4.665-0.56-5.803-1.684
	c-1.126-1.123-1.561-2.96-1.305-5.512l1.005-10.047h-2.447c0.425,1.619,0.526,3.546,0.303,5.78
	c-0.343,3.432-1.494,6.201-3.452,8.306c-1.946,2.105-4.195,3.157-6.746,3.157c-1.072,0-1.992-0.121-2.758-0.363
	c-0.767-0.243-1.571-0.619-2.413-1.129L37.244,40h-6.698l1.213-12.134c-3.577,4.789-9.236,7.939-15.371,7.939
	c-9.814,0-17.124-8.06-16.329-18.004C0.855,7.857,9.455-0.203,19.269-0.203c4.975,0,9.307,2.071,12.265,5.41l5.645-2.162
	l-3.335,5.56c0.329,0.648,0.616,1.322,0.86,2.019l5.477,0l-0.224,2.239c1.066-0.842,2.136-1.525,3.209-2.048
	c1.073-0.523,2.278-0.784,3.619-0.785c1.113,0,2.093,0.198,2.941,0.593l6.393,0l0.614-6.144h6.699l-0.615,6.144h6.45l-0.467,4.67
	h-6.45l-0.762,7.617c-0.075,0.753-0.135,1.41-0.178,1.971c-0.044,0.562,0.008,1.066,0.155,1.512
	c0.134,0.447,0.411,0.804,0.831,1.072c0.434,0.256,1.084,0.383,1.952,0.383c0.357,0,0.83-0.077,1.42-0.23
	c0.602-0.153,1.024-0.293,1.267-0.421h0.574l-0.472,4.727c-0.747,0.191-1.533,0.338-2.36,0.44
	C63.949,32.479,62.942,32.536,61.756,32.536z M11.748,15.188c0.39-4.874,4.819-8.826,9.892-8.826c2.543,0,4.766,0.994,6.301,2.598
	L12.898,20.083C12.036,18.683,11.604,16.999,11.748,15.188z M75.278,32.115H68.58l2.149-21.492h6.698L75.278,32.115z M77.925,7.561
	h-7.081l0.522-5.224h7.081L77.925,7.561z M102.497,32.115l1.074-10.736c0.106-1.059,0.176-1.951,0.21-2.679
	c0.034-0.727-0.021-1.321-0.167-1.78c-0.145-0.46-0.412-0.791-0.8-0.995c-0.374-0.216-0.924-0.325-1.651-0.325
	c-0.511,0-1.026,0.115-1.547,0.344c-0.519,0.217-1.093,0.53-1.72,0.938l-1.524,15.234h-6.736l1.074-10.736
	c0.104-1.046,0.167-1.932,0.189-2.66c0.036-0.74-0.019-1.339-0.165-1.799c-0.145-0.46-0.413-0.791-0.8-0.995
	c-0.374-0.216-0.918-0.325-1.632-0.325c-0.549,0-1.098,0.128-1.646,0.383c-0.549,0.255-1.089,0.555-1.621,0.9l-1.523,15.234h-6.698
	l2.149-21.492h6.699l-0.238,2.373c1.19-0.931,2.296-1.659,3.318-2.182c1.022-0.523,2.139-0.784,3.351-0.785
	c1.314,0,2.437,0.313,3.37,0.938c0.933,0.626,1.598,1.557,1.998,2.794c1.408-1.199,2.712-2.118,3.912-2.756
	c1.213-0.651,2.406-0.976,3.581-0.976c0.995,0,1.872,0.16,2.631,0.478c0.759,0.319,1.381,0.798,1.866,1.435
	c0.53,0.689,0.895,1.512,1.093,2.469c0.212,0.944,0.241,2.182,0.088,3.713l-1.399,13.99H102.497z M119.942,7.561h-7.081l0.523-5.224
	h7.081L119.942,7.561z M137.33,26.986c-0.792-1.659-1.068-3.683-0.829-6.072c0.351-3.508,1.639-6.309,3.864-8.402
	c2.225-2.092,5.149-3.138,8.773-3.139c3.291,0,5.678,0.887,7.159,2.66c1.481,1.774,2.056,4.313,1.726,7.617l-0.241,2.411h-14.679
	c-0.036,0.995,0.091,1.832,0.381,2.507c0.291,0.664,0.71,1.193,1.258,1.588c0.535,0.396,1.176,0.683,1.923,0.861
	c0.749,0.167,1.576,0.249,2.482,0.249c0.778,0,1.552-0.082,2.321-0.249c0.77-0.178,1.482-0.408,2.136-0.689
	c0.573-0.242,1.102-0.503,1.59-0.785c0.5-0.28,0.908-0.529,1.223-0.747h0.708l-0.553,5.531c-0.57,0.217-1.094,0.421-1.573,0.612
	c-0.465,0.179-1.102,0.364-1.912,0.555c-0.746,0.191-1.514,0.338-2.302,0.44c-0.582,0.087-1.259,0.14-2.029,0.162l-31.462,0.016
	h-0.69h-6.008l2.15-21.492h6.698l-1.626,16.261l10.691-11.228l-7.979,0.029l0.58-4.927l16.227-0.135l-0.434,4.344l-11.479,12.019
	H137.33z M151.584,18.024c0.103-1.416-0.121-2.494-0.672-3.234c-0.538-0.74-1.446-1.109-2.721-1.11
	c-1.301,0-2.361,0.389-3.179,1.167c-0.805,0.779-1.313,1.837-1.523,3.177H151.584z M187.706,10.043L173.917,39.42h-7.196
	l4.094-8.401l-4.565-16.544l-1.706,17.06h-6.699l2.978-29.779h6.698l-0.829,8.287h5.377l3.169,13.474l5.577-13.474H187.706z"/>
</svg>
