<?xml version="1.0" encoding="UTF-8" standalone="no"?>
<svg width="1600px" height="290px" viewBox="0 0 1600 290" version="1.1" xmlns="http://www.w3.org/2000/svg" xmlns:xlink="http://www.w3.org/1999/xlink" xmlns:sketch="http://www.bohemiancoding.com/sketch/ns">
    <!-- Generator: Sketch 3.3.2 (12043) - http://www.bohemiancoding.com/sketch -->
    <title>Waves</title>
    <desc>Created with Sketch.</desc>
    <defs></defs>
    <g id="Page-1" stroke="none" stroke-width="1" fill="none" fill-rule="evenodd" sketch:type="MSPage">
        <g id="Waves" sketch:type="MSArtboardGroup" stroke-width="2" opacity="0.400000006">
            <g id="Imported-Layers-Copy-7-+-Imported-Layers-Copy-8-+-Imported-Layers" sketch:type="MSLayerGroup" transform="translate(-1.000000, 7.000000)">
                <g id="Imported-Layers-Copy-7" transform="translate(1.001250, 5.000000)" stroke="#0095E7" sketch:type="MSShapeGroup">
                    <path d="M0.164246676,256.516285 C52.9929461,234.367433 86.3976139,205.63 121.507695,205.63 C178.576943,205.63 224.756595,263.895 298.720935,263.895 C372.684274,263.895 400.842428,78.314 513.478046,78.314 C626.112664,78.314 659.152913,205.63 726.733283,205.63 C794.314654,205.63 842.37165,94.738 944.494144,94.738 C1046.61664,94.738 1103.68488,166.735 1175.77188,166.735 C1247.85788,166.735 1289.90837,0.095 1366.49999,0.095 C1419.50116,0.095 1463.05253,50.684 1484.85375,81.849 C1494.55787,95.72 1599.2786,281.7 1599.2786,281.7" id="Stroke-2"></path>
                </g>
                <path d="M1.06247704,278.933714 C117.082887,265.452681 203.733281,205.535 254.430641,205.535 C311.499889,205.535 357.679541,263.8 431.64288,263.8 C505.60722,263.8 533.766375,78.219 646.400993,78.219 C759.03561,78.219 792.075859,205.535 859.656229,205.535 C927.2376,205.535 975.294596,94.643 1077.41709,94.643 C1179.53958,94.643 1236.60783,166.64 1308.69483,166.64 C1380.78082,166.64 1422.83132,0 1499.42294,0 C1541.38849,0 1577.43026,31.7156835 1601.44103,60.3923914" id="Imported-Layers-Copy-8" stroke="#20ACC1" sketch:type="MSShapeGroup"></path>
                <path d="M0,270 C81.5011557,247.636131 144.352514,205.535 184.343141,205.535 C241.412389,205.535 287.592041,263.8 361.55538,263.8 C435.51972,263.8 463.678875,78.219 576.313492,78.219 C688.94811,78.219 721.988359,205.535 789.568729,205.535 C857.1501,205.535 905.207096,94.643 1007.32959,94.643 C1109.45208,94.643 1166.52033,166.64 1238.60733,166.64 C1310.69332,166.64 1352.74382,0 1429.33544,0 C1479.75438,0 1521.62265,45.78 1544.34903,77.068 C1549.73722,84.4857808 1574.97269,130.239899 1600.80419,177.768823" id="Imported-Layers" stroke="#0B9D76" sketch:type="MSShapeGroup"></path>
            </g>
        </g>
    </g>
</svg>